<?xml version="1.0" standalone="no"?>
<!DOCTYPE svg PUBLIC "-//W3C//DTD SVG 20010904//EN"
 "http://www.w3.org/TR/2001/REC-SVG-20010904/DTD/svg10.dtd">
<svg version="1.0" xmlns="http://www.w3.org/2000/svg"
 width="500.000000pt" height="500.000000pt" viewBox="0 0 500.000000 500.000000"
 preserveAspectRatio="xMidYMid meet">

<g transform="translate(0.000000,500.000000) scale(0.100000,-0.100000)"
fill="#000000" stroke="none">
<path d="M0 2500 l0 -2500 2500 0 2500 0 0 2500 0 2500 -2500 0 -2500 0 0
-2500z m2272 1675 c10 -77 29 -316 35 -451 5 -118 5 -122 -16 -134 -26 -14
-57 -6 -66 18 -9 22 -28 589 -21 608 4 10 16 14 33 12 25 -3 28 -8 35 -53z
m1196 -131 c38 -27 28 -56 -51 -135 -81 -81 -164 -189 -225 -289 -21 -36 -47
-66 -56 -68 -21 -5 -46 15 -46 37 0 27 58 141 115 226 61 91 202 245 225 245
9 0 26 -7 38 -16z m-2202 -596 c103 -82 244 -177 325 -219 32 -15 67 -40 78
-55 19 -24 20 -29 7 -48 -18 -27 -62 -26 -118 4 -153 79 -438 306 -438 347 0
23 19 43 40 43 9 0 57 -32 106 -72z m1657 -33 c246 -44 431 -166 520 -344 82
-163 73 -323 -25 -490 -52 -87 -169 -197 -323 -301 -77 -52 -157 -113 -179
-135 -101 -103 -153 -226 -162 -382 -5 -72 -11 -101 -22 -110 -23 -19 -280
-17 -407 3 -119 19 -145 35 -129 82 7 21 17 28 43 30 l34 3 -5 72 c-9 132 -86
236 -285 383 -192 142 -258 262 -257 464 3 351 296 636 734 714 159 29 338 32
463 11z m1305 -433 c4 -39 -7 -45 -145 -77 -150 -35 -192 -50 -315 -108 -89
-41 -110 -48 -123 -37 -40 33 -2 73 143 148 145 76 355 132 417 111 13 -4 21
-17 23 -37z m-2720 -314 c16 -16 15 -53 0 -65 -15 -12 -83 -27 -188 -43 -81
-13 -229 -48 -325 -79 -64 -20 -80 -19 -95 10 -17 31 23 55 169 102 226 74
409 105 439 75z m70 -590 c24 -24 10 -55 -69 -153 -44 -55 -110 -146 -146
-202 -36 -57 -74 -105 -85 -109 -27 -8 -68 22 -68 50 0 45 308 426 344 426 6
0 17 -5 24 -12z m1911 -65 c73 -42 373 -233 409 -260 33 -25 42 -59 20 -81
-20 -20 -51 -14 -106 21 -101 62 -356 242 -391 275 l-36 34 24 19 c29 24 25
24 80 -8z m-844 -453 c65 -15 88 -74 41 -105 -21 -14 -36 -15 -103 -6 -43 6
-143 13 -223 16 -79 3 -150 11 -157 17 -22 18 -15 48 15 59 66 25 346 38 427
19z m-63 -178 c50 -29 62 -96 29 -168 -29 -64 -62 -84 -138 -84 -61 0 -67 2
-100 35 -33 33 -35 38 -31 89 l4 54 -64 10 c-66 11 -92 25 -92 48 0 23 20 27
154 33 153 8 201 4 238 -17z"/>
<path d="M2520 3305 c-225 -36 -380 -106 -506 -230 -66 -65 -89 -96 -122 -165
-109 -231 -73 -425 108 -574 152 -125 229 -206 266 -281 42 -85 57 -167 44
-237 -6 -28 -8 -54 -5 -56 3 -3 78 -10 166 -16 182 -11 179 -12 179 64 0 64
35 183 78 265 50 96 158 202 309 303 203 137 288 229 333 363 87 255 -127 515
-470 569 -88 13 -276 11 -380 -5z m120 -637 c35 -58 36 -123 3 -232 -5 -18 -4
-18 22 2 67 53 144 -4 111 -82 -17 -41 -49 -65 -98 -72 l-37 -6 -45 -137 c-25
-75 -54 -169 -66 -209 -21 -74 -36 -90 -67 -77 -10 5 -29 7 -42 6 -23 -3 -24
-1 -17 41 21 131 36 248 36 286 0 42 0 42 -36 42 -82 0 -144 58 -144 135 0 79
72 145 141 130 34 -8 85 -66 94 -107 13 -57 24 -15 18 71 -6 99 7 176 39 216
28 36 64 33 88 -7z"/>
<path d="M2354 2373 c-6 -20 -2 -31 16 -45 12 -10 31 -18 42 -18 17 0 19 4 13
28 -8 32 -33 62 -51 62 -8 0 -17 -12 -20 -27z"/>
<path d="M2685 2378 c-9 -14 -11 -24 -5 -26 14 -5 40 17 40 34 0 21 -17 17
-35 -8z"/>
<path d="M2549 2286 c-22 -19 -27 -33 -32 -102 l-6 -79 18 50 c10 28 28 74 40
103 23 57 19 63 -20 28z"/>
<path d="M2483 1277 c-25 -11 -31 -27 -9 -27 14 0 42 28 35 34 -2 2 -14 -1
-26 -7z"/>
</g>
</svg>
